<svg xmlns="http://www.w3.org/2000/svg" style="display:none">
  <symbol id="gw-icon-menu" viewBox="0 0 24 24">
    <path d="M4 7h16"/><path d="M4 12h16"/><path d="M4 17h16"/>
  </symbol>
  <symbol id="gw-icon-home" viewBox="0 0 24 24">
    <path d="M4 11.5 12 5l8 6.5"/><path d="M6.5 10.5V20h11v-9.5"/><path d="M10 20v-5h4v5"/>
  </symbol>
  <symbol id="gw-icon-messenger" viewBox="0 0 24 24">
    <g transform="translate(0 0) scale(0.09375)">
    <path d="M128,24A104,104,0,0,0,36.18,176.88L24.83,210.93a16,16,0,0,0,20.24,20.24l34.05-11.35A104,104,0,1,0,128,24Zm0,192a87.87,87.87,0,0,1-44.06-11.81,8,8,0,0,0-6.54-.67L40,216,52.47,178.6a8,8,0,0,0-.66-6.54A88,88,0,1,1,128,216Z"/>
  </g>
  </symbol>
  <symbol id="gw-icon-mail" viewBox="0 0 24 24">
    <rect x="4" y="6" width="16" height="12" rx="2"/><path d="m5 8 7 5 7-5"/>
  </symbol>
  <symbol id="gw-icon-notification" viewBox="0 0 24 24">
    <path d="M18 10a6 6 0 0 0-12 0c0 5-2 6-2 6h16s-2-1-2-6"/><path d="M10 19a2 2 0 0 0 4 0"/>
  </symbol>
  <symbol id="gw-icon-attendance" viewBox="0 0 24 24">
    <g transform="translate(0 0) scale(0.09375)">
    <path d="M128,24A104,104,0,1,0,232,128,104.11,104.11,0,0,0,128,24Zm0,192a88,88,0,1,1,88-88A88.1,88.1,0,0,1,128,216Zm64-88a8,8,0,0,1-8,8H128a8,8,0,0,1-8-8V72a8,8,0,0,1,16,0v48h48A8,8,0,0,1,192,128Z"/>
  </g>
  </symbol>
  <symbol id="gw-icon-board" viewBox="0 0 24 24">
    <path d="M12 7.5H13.5M12 10.5H13.5M6 13.5H13.5M6 16.5H13.5M16.5 7.5H19.875C20.4963 7.5 21 8.00368 21 8.625V18C21 19.2426 19.9926 20.25 18.75 20.25M16.5 7.5V18C16.5 19.2426 17.5074 20.25 18.75 20.25M16.5 7.5V4.875C16.5 4.25368 15.9963 3.75 15.375 3.75H4.125C3.50368 3.75 3 4.25368 3 4.875V18C3 19.2426 4.00736 20.25 5.25 20.25H18.75M6 7.5H9V10.5H6V7.5Z" stroke="#0F172A" stroke-width="1.5" stroke-linecap="round" stroke-linejoin="round"/>
  </symbol>
  <symbol id="gw-icon-calendar" viewBox="0 0 24 24">
    <rect x="4" y="5" width="16" height="15" rx="2"/><path d="M8 3v4"/><path d="M16 3v4"/><path d="M4 10h16"/><path d="M8 14h2"/><path d="M13 14h3"/><path d="M8 17h2"/>
  </symbol>
  <symbol id="gw-icon-report" viewBox="0 0 24 24">
    <path d="M13.4 2H6a2 2 0 0 0-2 2v16a2 2 0 0 0 2 2h12a2 2 0 0 0 2-2v-7.4" />
  <path d="M2 6h4" />
  <path d="M2 10h4" />
  <path d="M2 14h4" />
  <path d="M2 18h4" />
  <path d="M21.378 5.626a1 1 0 1 0-3.004-3.004l-5.01 5.012a2 2 0 0 0-.506.854l-.837 2.87a.5.5 0 0 0 .62.62l2.87-.837a2 2 0 0 0 .854-.506z" />
  </symbol>
  <symbol id="gw-icon-approval" viewBox="0 0 24 24">
    <path d="M9 5h-2a2 2 0 0 0 -2 2v12a2 2 0 0 0 2 2h10a2 2 0 0 0 2 -2v-12a2 2 0 0 0 -2 -2h-2" />
  <path d="M9 5a2 2 0 0 1 2 -2h2a2 2 0 0 1 2 2a2 2 0 0 1 -2 2h-2a2 2 0 0 1 -2 -2" />
  <path d="M9 14l2 2l4 -4" />
  </symbol>
  <symbol id="gw-icon-people" viewBox="0 0 24 24">
    <circle cx="12" cy="7" r="3"/><path d="M6.5 20a5.5 5.5 0 0 1 11 0"/><path d="M4 13.5a3.5 3.5 0 0 1 4-3.4"/><path d="M20 13.5a3.5 3.5 0 0 0-4-3.4"/>
  </symbol>
  <symbol id="gw-icon-payroll" viewBox="0 0 24 24">
    <circle cx="12" cy="12" r="10" />
  <path d="M16 8h-6a2 2 0 1 0 0 4h4a2 2 0 1 1 0 4H8" />
  <path d="M12 18V6" />
  </symbol>
  <symbol id="gw-icon-tax" viewBox="0 0 24 24">
    <path d="M9 14l6 -6" />
  <path d="M9 8.5a.5 .5 0 1 0 1 0a.5 .5 0 1 0 -1 0" fill="none" />
  <path d="M14 13.5a.5 .5 0 1 0 1 0a.5 .5 0 1 0 -1 0" fill="none" />
  <path d="M5 21v-16a2 2 0 0 1 2 -2h10a2 2 0 0 1 2 2v16l-3 -2l-2 2l-2 -2l-2 2l-2 -2l-3 2" />
  </symbol>
  <symbol id="gw-icon-labor" viewBox="0 0 24 24">
    <path d="M10 10V5a1 1 0 0 1 1-1h2a1 1 0 0 1 1 1v5" />
  <path d="M14 6a6 6 0 0 1 6 6v3" />
  <path d="M4 15v-3a6 6 0 0 1 6-6" />
  <rect x="2" y="15" width="20" height="4" rx="1" />
  </symbol>
  <symbol id="gw-icon-legal" viewBox="0 0 24 24">
    <path d="M12 4v16"/><path d="M7 20h10"/><path d="M5 8h14"/><path d="M8 8l-3 6h6z"/><path d="M16 8l-3 6h6z"/>
  </symbol>
  <symbol id="gw-icon-documents" viewBox="0 0 24 24">
    <path d="M6 6h6l2 2h4v10a2 2 0 0 1-2 2H6a2 2 0 0 1-2-2V8a2 2 0 0 1 2-2z"/><path d="M4 11h16"/><path d="M8 15h6"/>
  </symbol>
  <symbol id="gw-icon-file" viewBox="0 0 24 24">
    <path d="M19.5 14.25V11.625C19.5 9.76104 17.989 8.25 16.125 8.25H14.625C14.0037 8.25 13.5 7.74632 13.5 7.125V5.625C13.5 3.76104 11.989 2.25 10.125 2.25H8.25M10.5 2.25H5.625C5.00368 2.25 4.5 2.75368 4.5 3.375V20.625C4.5 21.2463 5.00368 21.75 5.625 21.75H18.375C18.9963 21.75 19.5 21.2463 19.5 20.625V11.25C19.5 6.27944 15.4706 2.25 10.5 2.25Z" stroke="#0F172A" stroke-width="1.5" stroke-linecap="round" stroke-linejoin="round"/>
  </symbol>
  <symbol id="gw-icon-admin" viewBox="0 0 24 24">
    <path d="M12 4 6 6.5v5.5c0 4 2.5 6.5 6 8 3.5-1.5 6-4 6-8V6.5z"/><path d="m9 12 2 2 4-4"/>
  </symbol>
  <symbol id="gw-icon-settings" viewBox="0 0 24 24">
    <path d="M10.325 4.317c.426 -1.756 2.924 -1.756 3.35 0a1.724 1.724 0 0 0 2.573 1.066c1.543 -.94 3.31 .826 2.37 2.37a1.724 1.724 0 0 0 1.065 2.572c1.756 .426 1.756 2.924 0 3.35a1.724 1.724 0 0 0 -1.066 2.573c.94 1.543 -.826 3.31 -2.37 2.37a1.724 1.724 0 0 0 -2.572 1.065c-.426 1.756 -2.924 1.756 -3.35 0a1.724 1.724 0 0 0 -2.573 -1.066c-1.543 .94 -3.31 -.826 -2.37 -2.37a1.724 1.724 0 0 0 -1.065 -2.572c-1.756 -.426 -1.756 -2.924 0 -3.35a1.724 1.724 0 0 0 1.066 -2.573c-.94 -1.543 .826 -3.31 2.37 -2.37c1 .608 2.296 .07 2.572 -1.065" />
  <path d="M9 12a3 3 0 1 0 6 0a3 3 0 0 0 -6 0" />
  </symbol>
  <symbol id="gw-icon-dashboard" viewBox="0 0 24 24">
    <path d="M12 16v5" />
  <path d="M16 14.639V21" />
  <path d="M20 10.656V21" />
  <path d="m22 3-8.646 8.646a.5.5 0 0 1-.708 0L9.354 8.354a.5.5 0 0 0-.707 0L2 15" />
  <path d="M4 18.463V21" />
  <path d="M8 14.656V21" />
  </symbol>
</svg>
